<svg width="51" height="45" viewBox="0 0 51 45" fill="none" xmlns="http://www.w3.org/2000/svg">
<path d="M30.0402 0.432823C30.8024 0.432823 31.426 1.05669 31.426 1.81903V5.97613H35.5828C36.345 5.97613 36.9685 6.59999 36.9685 7.36078C36.9685 8.12313 36.345 8.74702 35.5828 8.74702H31.426V12.9041C31.426 13.6665 30.8024 14.2903 30.0402 14.2903C29.2782 14.2903 28.6546 13.6665 28.6546 12.9041V8.74702H24.4977C23.7357 8.74702 23.1121 8.12313 23.1121 7.36078C23.1121 6.59999 23.7357 5.97613 24.4977 5.97613H28.6546V1.81903C28.6546 1.05669 29.2782 0.432823 30.0402 0.432823ZM0.941895 15.675C0.941895 7.82911 10.6414 1.36784 23.1121 0.527706V3.30016C12.174 4.07028 3.71325 9.31801 3.71325 15.675C3.71325 19.7543 7.19436 23.3747 12.5813 25.6524C13.0577 25.85 13.5512 26.0413 14.0531 26.2233C17.4742 27.4446 21.5356 28.1463 25.8834 28.1463C38.1287 28.1463 48.0536 22.5595 48.0536 15.675C48.0536 11.7342 44.8059 8.22738 39.7397 5.94191V2.99678C46.4255 5.73344 50.8248 10.3915 50.8248 15.675C50.8248 24.0935 39.6619 30.9172 25.8834 30.9172C23.9003 30.9172 21.9605 30.7787 20.1069 30.5096C21.1376 32 21.7265 33.8017 21.7265 35.6795C21.7265 40.7032 17.6559 44.7732 12.633 44.7732H5.09884C4.33666 44.7732 3.71325 44.1509 3.71325 43.3885C3.71325 42.6262 4.33666 42.0023 5.09884 42.0023H12.633C16.1231 42.0023 18.9551 39.1708 18.9551 35.6795C18.9551 33.2898 17.6042 31.0993 15.4565 30.0257L12.4341 28.5181C5.52296 25.8079 0.941895 21.0705 0.941895 15.675ZM45.2823 32.3034V36.4605H49.4392C50.2013 36.4605 50.8248 37.0829 50.8248 37.8452C50.8248 38.6075 50.2013 39.2314 49.4392 39.2314H45.2823V43.3885C45.2823 44.1509 44.6587 44.7732 43.8967 44.7732C43.1345 44.7732 42.5111 44.1509 42.5111 43.3885V39.2314H38.3541C37.5919 39.2314 36.9685 38.6075 36.9685 37.8452C36.9685 37.0829 37.5919 36.4605 38.3541 36.4605H42.5111V32.3034C42.5111 31.5411 43.1345 30.9172 43.8967 30.9172C44.6587 30.9172 45.2823 31.5411 45.2823 32.3034Z" fill="#C91313"/>
</svg>
