<svg width="1080" height="1080" viewBox="0 0 1080 1080" fill="none" xmlns="http://www.w3.org/2000/svg">
<path d="M540 1007C797.917 1007 1007 797.693 1007 539.5C1007 281.307 797.917 72 540 72C282.083 72 73 281.307 73 539.5C73 797.693 282.083 1007 540 1007Z" fill="url(#paint0_linear_1_62)"/>
<path d="M540 999C797.917 999 1007 792.603 1007 538C1007 283.397 797.917 77 540 77C282.083 77 73 283.397 73 538C73 792.603 282.083 999 540 999Z" fill="#0A0A0A"/>
<path d="M341.806 556.851C348.198 544.534 353.268 537.514 361.994 528.36C363.703 526.568 366.691 527.797 366.691 530.274C366.691 530.522 366.657 530.769 366.592 531.008L364.558 538.438L363.136 546.228L362.425 557.559L362.397 558.117C361.943 567.163 362.429 576.233 363.847 585.179L365.345 592.044C366.701 598.258 369.339 604.121 373.09 609.258C375.68 613.724 378.966 617.748 382.824 621.179L383.754 622.006L390.153 629.088L396.312 634.751C398.363 636.637 400.592 638.32 402.968 639.776L407.833 642.758C408.367 643.086 408.948 643.329 409.556 643.481L413.894 644.561C415.559 644.976 417.171 643.716 417.171 642C417.156 640.017 416.92 639.257 416.46 636.878C416.392 636.528 416.283 636.132 416.145 635.694C413.922 628.615 412.415 621.252 410.061 614.216L405.795 600.052L402.951 583.055L402.405 578.155C401.822 572.931 401.644 567.669 401.873 562.418L401.963 560.366C402.147 556.141 402.679 551.939 403.554 547.802C404.572 542.987 406.049 538.28 407.965 533.746L410.772 527.106L412.432 523.563C414.64 518.85 417.202 514.311 420.097 509.986C422.882 505.825 425.968 501.872 429.329 498.16L434 493L443.477 482.489L453.431 472.574L461.963 464.076L466.103 460.246C469.724 456.898 471.38 451.93 470.495 447.079C470.022 438.127 470.37 429.151 471.533 420.262L471.917 417.334L473.339 400.337C474.284 390.918 476.168 381.617 478.962 372.572L480.449 367.76L486.137 349.347L492.536 330.933L498.223 315.353L506.044 296.939L512.443 282.775L522.397 263.653L525.241 256.571C527.133 249.033 529.708 241.683 532.935 234.612L535.195 229.66L540.172 216.204L544.438 205.581L545.466 203.533C547.668 199.145 554.18 200.051 555.103 204.872L557.235 216.912L558.657 236.033L562.212 257.988L567.9 287.024L571.455 317.477L577.854 347.222L582.12 372.717L587.808 398.921L593.496 421.584L599.895 445.663L605.583 468.325L610.56 489.571L614.826 508.693L619.802 529.231L623.357 543.395L627.623 563.225L630.467 584.471L630.809 587.878C631.604 595.792 640.679 599.865 647.12 595.199C647.864 594.66 648.534 594.023 649.11 593.305L652.592 588.97C655.368 585.513 657.688 581.713 659.495 577.665L662.462 571.015C667.657 559.254 671.429 546.914 673.698 534.258L673.837 533.48L675.259 518.608L675.97 500.195L674.548 483.198L671.705 466.201L666.954 450.952C666.593 449.796 668.084 448.983 668.861 449.912L671.352 452.276C679.601 460.101 686.665 469.086 692.323 478.948L703.699 499.486L713.653 517.9C719.802 532.505 724.587 547.647 727.949 563.133L728.584 566.058L732.139 588.012L733.561 614.924L732.85 638.295L731.61 653.937C731.303 657.806 735.976 659.968 738.726 657.229C739.072 656.884 739.354 656.482 739.561 656.041L744.225 646.085C747.065 639.013 749.381 631.741 751.153 624.328L752.046 620.59L755.027 605.746C755.321 604.28 757.409 604.258 757.734 605.717C760.566 616.532 762 627.665 762 638.844V646.085L761.598 667.283C761.392 678.159 760.355 689.108 758.53 699.832C755.658 716.711 750.76 733.352 743.993 749.079C739.415 759.718 733.989 769.972 727.765 779.74L713.653 801.891L701.621 815.93C693.077 825.899 683.489 834.924 673.021 842.848C659.879 852.797 645.458 860.931 630.147 867.032L625.727 868.793C615.629 872.816 605.246 876.081 594.663 878.562L592.596 879.046C564.499 885.631 535.467 887.248 506.813 883.823L496.801 882.626C477.9 878.265 467.602 875.204 449.876 868.462C428.684 859.659 417.628 852.842 399.396 837.301C383.836 824.545 376.012 815.612 363.847 796.225C350.436 776.926 344.231 765.149 335.407 742.401C328.553 726.596 325.093 715.189 319.765 689.286C317.125 673.102 317.936 662.781 319.054 641.836C319.129 641.182 319.217 640.476 319.317 639.725C323.102 611.199 327.486 581.811 341.806 556.851Z" fill="url(#paint1_linear_1_62)" stroke="url(#paint2_linear_1_62)"/>
<path d="M587.241 589.789C586.789 591.437 586.38 593.154 586.455 594.872C586.569 597.507 586.491 600.131 586.458 602.767C586.453 603.133 586.452 603.383 586.562 602.814C586.835 601.405 587.003 599.974 587.107 598.544C587.208 597.159 587.281 595.739 587.1 594.355C587.089 594.27 587.022 593.464 586.784 593.891C586.418 594.548 586.188 595.325 585.95 596.029C585.384 597.706 584.86 599.399 584.323 601.086C583.962 602.219 583.632 603.374 583.21 604.488C583.166 604.606 583.028 604.991 583.089 604.602C583.16 604.15 583.38 603.287 583.466 602.948C584.224 599.96 585.22 597.035 585.964 594.045C586.377 592.385 584.945 597.313 584.448 598.951C583.407 602.374 582.375 605.846 580.86 609.098C580.765 609.303 580.672 609.511 580.558 609.706C580.534 609.747 580.462 609.842 580.45 609.797C580.422 609.693 580.472 609.582 580.497 609.477C580.947 607.595 581.625 605.756 582.198 603.91C582.614 602.572 583.054 601.229 583.338 599.855C583.347 599.812 583.591 598.864 583.388 598.742C583.136 598.591 581.58 602.052 581.459 602.289C579.971 605.203 578.299 607.992 576.99 611C575.918 613.465 574.719 615.862 573.517 618.266C573.255 618.791 572.867 619.41 572.731 619.987C572.691 620.157 572.845 620.084 572.926 620.021C573.575 619.511 574.062 618.508 574.543 617.846C576.262 615.478 577.437 612.605 578.648 609.955C579.371 608.373 580.439 606.997 581.233 605.456C582.025 603.921 582.836 602.392 583.436 600.77C584.782 597.126 586.485 593.664 586.791 589.749C586.932 587.939 586.733 585.942 587.147 584.168C587.222 583.848 587.232 583.77 587.396 584.231C587.766 585.275 588.01 586.369 588.27 587.442C588.96 590.289 589.618 593.133 590.523 595.921C592.181 601.031 594.17 606.05 595.475 611.269C596.512 615.416 596.946 619.694 597.529 623.921" stroke="#FE1D01" stroke-width="3" stroke-linecap="round"/>
<path d="M514.863 861.459C512.609 859.205 510.106 857.134 507.746 855.002C506.199 853.605 503.557 851.226 501.872 849.652C501.261 849.082 501.227 849.159 501.005 848.715" stroke="#0A0A0A" stroke-linecap="round"/>
<path d="M515.091 861.438C512.501 860.178 509.944 858.844 507.383 857.528C505.28 856.446 502.248 854.886 500.044 853.722C499.369 853.365 498.708 853.046 498.092 852.604C497.217 851.977 496.341 851.175 495.877 850.197" stroke="#0A0A0A" stroke-linecap="round"/>
<path d="M515.455 861.187C515.154 860.805 514.897 860.417 514.61 860.006C511.847 856.053 509.098 852.091 506.373 848.111C504.594 845.513 502.88 842.907 501.243 840.222" stroke="#0A0A0A" stroke-linecap="round"/>
<path d="M505.843 849.953C506.198 850.405 505.601 848.935 505.859 849.424C506.663 850.945 507.402 852.496 508.293 853.97C508.552 854.397 508.823 854.815 509.121 855.216C509.157 855.265 509.271 855.407 509.238 855.355C509.168 855.245 508.8 854.709 508.796 854.704C507.962 853.487 507.085 852.299 506.259 851.077C506.115 850.864 505.958 850.646 505.841 850.416C505.82 850.375 505.781 850.299 505.861 850.366C505.965 850.453 506.124 850.651 506.19 850.731C507.31 852.084 508.413 853.408 509.715 854.595C510.086 854.933 510.485 855.242 510.85 855.585C510.997 855.722 510.804 855.594 510.768 855.57C510.484 855.381 510.303 855.234 510.035 854.989C508.605 853.679 507.539 852.103 506.527 850.467C506.297 850.095 506.066 849.723 505.82 849.36C505.56 848.977 505.885 849.43 505.918 849.478C506.881 850.85 507.838 852.226 508.827 853.58C509.202 854.093 510.358 855.611 509.958 855.116C509.191 854.169 508.551 853.099 507.841 852.109C507.362 851.44 506.879 850.784 506.573 850.015C506.509 849.854 506.264 849.408 506.386 849.53C506.489 849.633 506.578 849.82 506.647 849.935C506.99 850.505 507.337 851.068 507.715 851.616C508.481 852.727 509.293 853.81 510.144 854.857C510.566 855.376 511.864 856.895 511.365 856.45C509.743 855.004 508.476 853.101 506.671 851.86C506.577 851.795 506.328 851.626 506.195 851.632C506.136 851.635 506.179 851.755 506.205 851.809C506.333 852.08 506.532 852.379 506.693 852.615C507.221 853.392 507.794 854.139 508.392 854.864C508.602 855.12 508.895 855.459 509.139 855.706C509.213 855.781 509.374 856.014 509.381 855.909C509.384 855.868 509.335 855.841 509.309 855.809C509.128 855.596 508.871 855.337 508.685 855.152C507.771 854.248 506.799 853.407 505.826 852.567C505.416 852.213 505.003 851.862 504.598 851.503C504.57 851.478 504.487 851.404 504.509 851.434C504.652 851.623 504.817 851.794 504.978 851.968C506.143 853.233 507.371 854.367 508.786 855.344C508.847 855.386 509.028 855.507 508.958 855.483C508.308 855.265 507.674 854.931 507.055 854.641C506.227 854.254 505.405 853.853 504.578 853.463C504.344 853.353 503.942 853.165 503.675 853.047C503.625 853.025 503.488 852.952 503.518 852.998C503.622 853.154 504.003 853.361 504.126 853.439C505.07 854.032 506.073 854.536 507.117 854.93C507.34 855.013 508.096 855.354 508.396 855.277C508.518 855.246 508.164 855.179 508.043 855.147C507.747 855.07 507.332 854.979 507.043 854.916C505.702 854.627 504.352 854.379 503.025 854.025C502.984 854.015 502.699 853.935 503.033 854.014C503.831 854.202 504.618 854.44 505.399 854.687C506.02 854.884 506.638 855.093 507.251 855.313C507.402 855.367 507.852 855.506 507.363 855.414C506.094 855.177 504.828 854.923 503.559 854.684C503.418 854.657 503.279 854.627 503.14 854.595C503.031 854.571 503.348 854.676 503.454 854.71C504.368 855.003 505.307 855.259 506.249 855.447C506.837 855.565 505.108 855.075 504.535 854.897C503.946 854.714 503.356 854.539 502.764 854.366C502.216 854.206 503.826 854.791 504.355 855.008C505.441 855.454 506.506 855.916 507.546 856.46C508.197 856.8 508.841 857.139 509.519 857.423C510.214 857.715 510.857 858.135 511.573 858.38C511.85 858.474 511.755 858.327 511.624 858.103C510.935 856.926 510.122 855.794 509.25 854.746C509.214 854.702 509.102 854.575 509.132 854.623C509.423 855.094 509.852 855.522 510.215 855.93C510.851 856.646 511.501 857.352 512.169 858.039C512.42 858.297 513.157 859.06 512.991 858.74C512.776 858.324 512.413 857.922 512.131 857.557C511.701 857 511.27 856.415 510.76 855.926C509.98 855.176 512.102 857.625 512.837 858.419C512.925 858.513 513.014 858.605 513.103 858.697C513.158 858.755 513.25 858.796 513.263 858.874C513.272 858.926 513.157 858.866 513.108 858.846C512.871 858.752 512.571 858.604 512.354 858.497C511.903 858.276 511.459 858.04 511.006 857.823C510.758 857.703 510.661 857.674 510.898 857.914C511.104 858.124 511.32 858.325 511.537 858.524C511.566 858.551 511.656 858.631 511.624 858.607C511.362 858.417 511.602 858.577 511.168 858.281C510.548 857.859 509.911 857.46 509.263 857.082C508.935 856.89 507.901 856.421 508.267 856.525C509.07 856.755 511.237 858.028 510.554 857.547C510.181 857.285 509.698 857.078 509.302 856.866C508.366 856.364 507.426 855.871 506.481 855.385C506.405 855.346 506.328 855.306 506.252 855.267C506.176 855.228 506.112 855.192 506.224 855.257C506.852 855.621 507.477 855.989 508.098 856.365C508.864 856.828 509.628 857.294 510.403 857.741C510.549 857.825 510.695 857.908 510.844 857.988C510.893 858.014 511.007 858.113 510.996 858.058C510.983 857.995 510.891 857.981 510.836 857.947C510.712 857.87 510.587 857.795 510.459 857.724C509.071 856.96 507.588 856.387 506.128 855.781C506.041 855.746 505.955 855.709 505.869 855.673C505.808 855.648 505.718 855.548 505.685 855.604C505.651 855.664 505.788 855.697 505.846 855.736C506.09 855.9 506.42 856.093 506.665 856.227C508.042 856.981 509.504 857.632 510.988 858.149C511.979 858.493 509.018 857.421 508.034 857.056C507.407 856.823 506.785 856.577 506.162 856.332C506.128 856.319 505.604 856.083 506.037 856.302C507.689 857.136 509.284 858.103 510.967 858.871C511.661 859.188 512.362 859.499 513.093 859.723C513.276 859.779 513.454 859.841 513.621 859.936C513.747 860.008 514.04 860.179 514.04 860.332" stroke="#0A0A0A" stroke-linecap="round"/>
<path d="M597.771 617.21L593.944 604.031C592.335 598.487 584.616 598.129 582.5 603.5L581.757 605.505C579.008 612.929 573.725 619.143 566.84 623.05C561.704 625.965 557.428 630.183 554.442 635.277L453.5 807.5L450.434 813.486C445.665 822.798 444.689 833.595 447.713 843.611C449.863 850.732 453.935 857.123 459.481 862.079L464.547 866.606C471.113 872.473 478.809 876.936 487.163 879.721L488.019 880.006C492.99 881.663 498.134 882.748 503.351 883.241L522 885H547L559.5 884L574 882L577.307 881.449C586.998 879.834 596.254 876.241 604.497 870.894C608.489 868.304 612.213 865.323 615.614 861.995L627.031 850.821C631.666 846.284 635.853 841.311 639.532 835.97C646.128 826.395 651.017 815.752 653.983 804.511L659 785.5L660.138 777.882C663.696 754.072 663.986 729.888 661 706L659.706 683.686C659.245 675.719 656.576 668.038 652 661.5C649.573 658.264 644.429 660.361 644.957 664.372L645.416 667.858C645.472 668.284 645.471 668.716 645.413 669.141L644.345 677.048C643.454 683.643 641.55 690.061 638.701 696.076L636.78 700.13C634.93 704.038 632.779 707.796 630.348 711.371L628.515 714.066C626.51 717.014 624.208 719.749 621.645 722.227L611.932 731.616C610.998 732.519 609.82 733.131 608.544 733.376C603.561 734.334 599.365 729.617 600.899 724.78L603.69 715.978C603.896 715.327 604.048 714.66 604.142 713.984L605.33 705.499C606.77 695.215 606.798 684.782 605.412 674.49L604 664L598.106 618.815C598.036 618.273 597.923 617.736 597.771 617.21Z" fill="#FE1D01" stroke="#FE1D01"/>
<path d="M515.374 757.015L519.422 753.567C519.474 753.522 519.522 753.474 519.567 753.422L520.252 752.623C520.907 751.859 522.154 752.423 522.011 753.42C522.004 753.473 521.992 753.526 521.976 753.577L520.974 756.782C519.997 759.909 519.5 763.167 519.5 766.443C519.5 768.476 519.692 770.505 520.072 772.503L521.5 780L522.924 787.12C523.259 788.794 524.729 790 526.437 790C527.434 790 528.385 789.585 529.063 788.855L534.5 783C538.826 777.343 543.606 772.047 548.792 767.166L549.5 766.5L552.464 762.796C554.88 759.775 559.581 760.141 561.5 763.5L565.5 771.5L565.786 771.958C568.908 776.953 571.201 782.421 572.576 788.148C573.191 790.713 573.62 793.318 573.859 795.945L574.5 803V811.084C574.5 811.693 574.442 812.301 574.327 812.9L573.412 817.659C572.695 821.387 575.673 824.796 579.464 824.585C580.471 824.529 581.446 824.213 582.294 823.668L585.735 821.456C587.239 820.489 588.616 819.337 589.832 818.027L594.156 813.37C594.384 813.125 594.645 812.911 594.931 812.736L596.754 811.622C599.052 810.218 601.852 812.445 601 815L599.5 821.5L598.072 826.14C596.364 831.693 593.989 837.018 591 842L590.359 842.898C585.815 849.259 580.294 854.862 574 859.5L570.581 862.756C565.876 867.237 560.669 871.16 555.064 874.446C551.028 876.811 546.803 878.837 542.432 880.502L538.5 882L533.561 883.441C528.915 884.796 524.021 885.073 519.252 884.25C514.48 883.428 509.96 881.526 506.034 878.691L505.315 878.172C503.774 877.059 502.325 875.825 500.981 874.481L494 867.5L490.306 863.113C487.462 859.737 485.303 855.839 483.948 851.638C482.02 845.663 481.783 839.271 483.262 833.169L485 826L485.723 819.316C486.57 811.478 488.515 803.797 491.5 796.5L495.004 786.626C496.332 782.882 497.991 779.238 499.939 775.776C503.932 768.677 509.174 762.297 515.374 757.015Z" fill="#FF7903" stroke="#FF7903"/>
<path d="M539 576.5L553.36 540.352C553.453 540.118 553.523 539.875 553.57 539.628C554.162 536.471 558.096 535.334 560.281 537.687L561.114 538.585C561.37 538.86 561.591 539.167 561.771 539.498L564.5 544.5L566.5 549.5L570.5 561L571.234 563.274C574.061 572.038 575.5 581.189 575.5 590.397C575.5 596.78 574.808 603.145 573.437 609.379L570 625L569.87 625.548C566.632 639.145 561.984 652.368 556 665L552.71 671.169C546.958 681.953 539.161 691.513 529.753 699.315C525.592 702.765 521.736 706.568 518.228 710.68L509 721.5L504.147 727.047C498.093 733.965 493.231 741.922 489.817 750.458C487.294 756.764 485.563 763.409 484.699 770.145C483.903 776.36 483.835 782.648 484.498 788.879L484.77 791.441C485.587 799.122 487.271 806.686 489.789 813.989L491 817.5L491.643 819.16C495.205 828.364 499.68 837.188 505 845.5C507.742 850.119 502.729 855.447 497.952 852.99L497.462 852.738C497.155 852.58 496.863 852.393 496.59 852.18L481 840L467 825.5C458.365 815.536 450.956 804.572 444.933 792.843L444.5 792L437.813 777.622C435.608 772.883 433.809 767.965 432.433 762.922L431.504 759.515C428.538 748.638 428.001 737.242 429.933 726.135C430.643 722.052 431.683 718.032 433.041 714.117L434.822 708.984C437.933 700.017 441.924 691.379 446.736 683.198L447.862 681.285C452.28 673.773 457.283 666.621 462.823 659.893L468.5 653L482 638.5L500.5 623.5L515 610L519.428 604.716C526.794 595.923 533.345 586.479 539 576.5Z" fill="#0A0A0A" stroke="#0A0A0A"/>
<path d="M562.852 543.895L562.5 542.5L562.011 541.034C562.004 541.011 561.995 540.989 561.984 540.968L561.5 540L561 539L560.531 538.061C560.51 538.021 560.484 537.983 560.454 537.949L555.735 532.746C555.484 532.469 555.023 532.632 555.002 533.005C555.001 533.028 554.997 533.051 554.992 533.074L553.012 541.826C553.004 541.862 553 541.899 553 541.936V542.92V544.124C553 544.337 553.135 544.527 553.336 544.597L554.406 544.967C554.468 544.989 554.534 544.998 554.6 544.994L562.398 544.517C562.711 544.498 562.929 544.199 562.852 543.895Z" fill="#0A0A0A" stroke="#0A0A0A"/>
<path d="M644.751 640.127L640.388 632.349C639.099 630.05 635.664 630.495 635.003 633.047C634.955 633.233 634.889 633.414 634.805 633.587L633.512 636.264C632.773 637.793 631.918 639.262 630.954 640.66L627.345 645.888L621.023 654.262L617.401 658.759C616.447 659.945 615.375 661.031 614.202 662.002L612.106 663.737C609.293 666.066 607.406 669.324 606.785 672.922C606.584 674.085 606.519 675.268 606.59 676.446L607.115 685.14C607.535 690.357 607.368 695.605 606.617 700.785L605.851 706.075C605.432 712.651 603.847 719.101 601.167 725.122L600.793 725.963C599.218 730.962 603.989 735.633 608.954 733.952L609.79 733.668C610.53 733.418 611.221 733.043 611.835 732.559L619.852 726.238C622.735 723.965 625.424 721.456 627.89 718.736L634 712C640.857 704.308 645.916 695.187 648.812 685.298L649.471 683.047L650.152 679.24C651.375 672.408 651.417 665.417 650.276 658.57C649.74 655.354 648.946 652.186 647.902 649.098L645.239 641.226C645.111 640.846 644.947 640.478 644.751 640.127Z" fill="#0A0A0A" stroke="#0A0A0A"/>
<path d="M550.07 202.77C550.07 201.967 550.15 201.123 550.197 200.334C550.344 197.851 550.5 195.368 550.659 192.885C550.668 192.747 550.646 192.536 550.719 192.408C550.761 192.335 550.779 192.566 550.79 192.65C550.952 193.899 551.011 195.21 550.953 196.469C550.866 198.372 550.496 200.249 550.413 202.154C550.36 203.361 550.422 204.561 550.422 205.766C550.422 205.776 550.425 205.917 550.42 205.817C550.398 205.277 550.419 204.732 550.447 204.192C550.56 202.052 551.117 199.976 551.293 197.841C551.37 196.903 551.462 195.978 551.362 195.039C551.305 194.503 551.199 193.971 551.125 193.436C551.08 193.115 551.023 192.793 550.937 192.48C550.914 192.396 550.889 192.311 550.854 192.231C550.844 192.208 550.842 192.178 550.821 192.164C550.691 192.078 550.913 192.463 550.959 192.612C551.82 195.362 552.837 198.06 553.675 200.818C554.375 203.123 554.82 205.486 555.385 207.825C555.476 208.201 555.761 208.945 555.369 209.231" stroke="#730002" stroke-linecap="round"/>
<path d="M551.26 191.768C549.554 195.373 547.87 198.989 546.187 202.605C545.73 203.587 545.118 204.785 544.691 205.852" stroke="#730002" stroke-linecap="round"/>
<path d="M551.498 191.81C552.525 196.26 553.359 200.753 554.223 205.235" stroke="#730002" stroke-linecap="round"/>
<path d="M550.997 197.2C550.658 197.359 551.087 197.203 550.647 197.167C550.518 197.156 550.366 197.141 550.261 197.218C549.622 197.69 549.17 198.758 548.882 199.374C548.498 200.195 547.514 202.728 547.887 201.902C548.233 201.135 548.534 200.347 548.875 199.578C549.188 198.872 549.393 198.432 549.725 197.748C549.831 197.527 549.941 197.308 550.051 197.089C550.133 196.926 550.342 196.427 550.307 196.606C550.292 196.681 550.251 196.748 550.222 196.82C550.014 197.338 549.95 197.474 549.749 198.07C549.434 199.007 549.156 199.968 548.973 200.941C548.949 201.067 548.92 201.195 548.93 201.322C548.932 201.348 548.987 201.315 549 201.292C549.32 200.728 549.514 200.026 549.733 199.422C549.976 198.753 550.235 198.077 550.418 197.387C550.433 197.331 550.474 197.265 550.446 197.214C550.427 197.179 550.391 197.272 550.374 197.307C550.307 197.445 550.25 197.588 550.197 197.731C550.107 197.973 549.214 200.77 549.583 200.791C549.676 200.797 549.741 200.688 549.802 200.618C550.047 200.339 550.282 199.891 550.447 199.581C550.809 198.902 551.125 198.2 551.471 197.512C551.527 197.4 551.581 197.287 551.647 197.18C551.665 197.151 551.701 197.081 551.721 197.109C551.797 197.217 551.622 197.88 551.611 197.956C551.517 198.637 551.437 199.324 551.387 200.01C551.375 200.168 551.362 200.327 551.365 200.485C551.372 200.779 551.443 200.587 551.509 200.432C551.888 199.538 552.103 198.583 552.435 197.672C552.454 197.62 552.459 197.551 552.506 197.522C552.534 197.505 552.531 197.582 552.531 197.614C552.53 197.75 552.515 197.886 552.504 198.022C552.442 198.798 552.362 199.573 552.293 200.348C552.276 200.534 552.212 201.266 552.19 201.522C552.187 201.563 552.171 201.684 552.181 201.644C552.229 201.469 552.218 201.283 552.237 201.103C552.296 200.538 552.36 199.974 552.431 199.411C552.465 199.143 552.518 198.341 552.55 198.61C552.574 198.809 552.536 199.012 552.531 199.213C552.512 199.955 552.51 200.697 552.524 201.439C552.527 201.579 552.532 201.718 552.538 201.857C552.544 202.009 552.56 202.032 552.533 201.799C552.475 201.297 552.378 200.798 552.266 200.306C552.204 200.034 552.067 199.487 551.968 199.211C551.929 199.104 551.735 198.49 551.528 198.857C551.226 199.392 551.202 200.197 551.142 200.783C551.113 201.063 551.094 201.344 551.077 201.625C551.071 201.728 551.019 202.443 551.087 202.657C551.098 202.691 551.155 202.729 551.182 202.706C551.258 202.641 551.293 202.537 551.335 202.446C551.549 201.989 551.694 201.446 551.685 200.938C551.677 200.468 551.53 199.966 551.063 199.76C550.571 199.542 550.055 199.778 549.652 200.063C549.366 200.266 549.011 200.633 548.779 200.894C548.611 201.084 548.17 201.704 548.307 201.491C548.484 201.216 548.644 200.933 548.762 200.627C548.811 200.498 549.065 199.933 548.879 199.79C548.76 199.698 548.481 199.891 548.435 199.919C548.083 200.132 547.762 200.412 547.495 200.725C547.428 200.803 547.114 201.154 547.149 201.302C547.152 201.319 547.186 201.306 547.199 201.295C547.301 201.209 547.555 200.887 547.604 200.825C547.804 200.567 548.059 200.216 548.238 199.945C548.358 199.765 548.697 199.345 548.704 199.094C548.704 199.078 548.67 199.074 548.657 199.084C548.546 199.167 548.197 199.578 548.163 199.618C547.763 200.092 547.363 200.578 547.028 201.1C546.944 201.232 546.706 201.488 546.855 201.537C547.055 201.603 547.594 200.916 547.664 200.836C548.015 200.437 548.317 200.002 548.629 199.574C548.761 199.393 549.024 198.91 549.118 199.113C549.169 199.224 549.116 199.83 549.116 199.832C549.073 200.448 548.966 201.076 548.986 201.694C549.003 202.205 549.244 201.895 549.405 201.638C549.789 201.023 550.066 200.325 550.335 199.656C550.511 199.216 550.661 198.823 550.801 198.376C550.836 198.263 550.87 198.15 550.895 198.035C550.898 198.019 550.892 197.973 550.885 197.987C550.843 198.064 550.817 198.148 550.79 198.231C550.552 198.963 550.368 199.716 550.234 200.473C550.109 201.183 550.094 201.876 550.035 202.59" stroke="#730002" stroke-linecap="round"/>
<path d="M550.536 195.657C550.37 195.948 551.114 195.703 551.177 195.697" stroke="#730002" stroke-linecap="round"/>
<path d="M550.095 195.998C550.044 196.077 549.94 196.188 549.949 196.291C549.971 196.527 550.399 196.428 550.516 196.459" stroke="#730002" stroke-linecap="round"/>
<path d="M549.654 196.719C549.613 196.761 549.378 196.954 549.463 197.029C549.644 197.187 549.936 196.702 549.703 196.96C549.563 197.115 549.38 197.379 549.27 197.539C549.183 197.666 549.098 197.794 549.015 197.924C548.931 198.057 548.651 198.409 548.793 198.34C548.857 198.309 548.888 198.235 548.93 198.178C549.024 198.05 549.113 197.918 549.2 197.786C549.475 197.367 549.761 196.934 549.975 196.48C550.036 196.351 550.04 196.31 549.933 196.425C549.789 196.58 549.628 196.81 549.519 196.975C549.313 197.285 549.162 197.536 548.992 197.867C548.903 198.039 548.656 198.541 548.806 198.418C548.851 198.381 549.018 198.147 549.04 198.118C549.113 198.017 549.276 197.704 549.274 197.828C549.271 197.973 549.192 198.107 549.15 198.246C549.018 198.682 548.912 199.124 548.793 199.565" stroke="#730002" stroke-linecap="round"/>
<path d="M511.945 859.236L511.036 859.009C511.012 859.003 510.988 858.995 510.965 858.986L505 856.5L500.5 854.5L497.058 852.533C497.02 852.511 496.984 852.484 496.953 852.453L495.5 851L493.589 849.089C493.322 848.822 493.436 848.367 493.797 848.257L504.213 845.087C504.39 845.034 504.582 845.082 504.712 845.212L504.965 845.465C504.988 845.488 505.009 845.514 505.027 845.541L506 847L511 855.5L512.514 858.528C512.705 858.91 512.36 859.34 511.945 859.236Z" fill="#0A0A0A" stroke="#0A0A0A"/>
<path d="M605 666C605.386 665.913 605.581 665.794 606.033 665.59C610.042 663.774 614.012 661.864 618 660" stroke="#0A0A0A" stroke-linecap="round"/>
<path d="M605 666C605.095 666.355 605.132 666.658 605.195 667.058C605.819 671.033 606.399 675.019 607 679" stroke="#0A0A0A" stroke-linecap="round"/>
<path d="M610.831 665.057C610.471 665.25 610.128 665.491 609.783 665.706C609.496 665.885 608.422 666.557 608.087 666.739C607.543 667.035 608.1 666.591 608.189 666.518C608.599 666.179 609.38 665.591 609.789 665.281C610.032 665.097 610.279 664.918 610.52 664.731C610.652 664.628 610.806 664.544 610.908 664.411C610.947 664.359 610.779 664.436 610.722 664.465C610.496 664.581 610.278 664.713 610.06 664.843C609.618 665.105 609.209 665.428 608.741 665.641C608.492 665.754 609.153 665.281 609.371 665.116C609.673 664.888 610.269 664.45 610.594 664.218C610.954 663.962 611.32 663.712 611.7 663.486C612.335 663.107 610.413 664.22 609.806 664.642C609.661 664.743 607.943 666.063 607.926 666.046C607.895 666.015 607.995 665.992 608.031 665.967C608.153 665.882 608.37 665.737 608.477 665.667C609.13 665.233 609.787 664.806 610.46 664.403C610.961 664.102 611.473 663.819 611.995 663.555C612.099 663.502 612.207 663.455 612.309 663.397C612.331 663.385 612.258 663.403 612.234 663.411C610.899 663.853 609.647 664.509 608.456 665.251C607.907 665.593 607.364 665.946 606.815 666.289C606.686 666.369 606.548 666.47 606.405 666.527C605.812 666.765 607.552 665.963 608.11 665.653C608.451 665.463 608.785 665.259 609.11 665.043C609.131 665.029 609.194 664.987 609.172 664.999C609.022 665.082 609.233 664.97 609.014 665.087C608.282 665.478 607.532 665.945 606.737 666.193C606.435 666.287 606.127 666.355 605.83 666.464C605.752 666.493 605.71 666.512 605.748 666.6C606.083 667.383 606.167 668.257 606.324 669.092C606.417 669.584 606.503 670.075 606.539 670.575C606.574 671.062 606.59 671.545 606.679 672.027C606.688 672.074 606.771 672.628 606.919 672.573C607.098 672.506 607.152 672.108 607.179 671.964C607.316 671.23 607.368 670.485 607.582 669.765C607.767 669.139 608.056 668.547 608.343 667.963C608.503 667.637 608.477 667.7 608.614 667.431C608.646 667.369 608.702 667.31 608.699 667.24C608.696 667.192 608.6 667.255 608.56 667.281C608.446 667.355 608.219 667.536 608.13 667.619C607.721 668.002 607.467 668.471 607.262 668.986C607.209 669.121 607.075 669.508 607.034 669.671C607.02 669.726 607.009 669.874 607.055 669.84C607.251 669.692 607.379 669.472 607.528 669.276C607.815 668.898 608.188 668.378 608.449 667.986C608.565 667.812 608.935 667.236 609.047 666.994C609.074 666.934 609.191 666.676 609.062 666.595C608.917 666.503 608.533 666.597 608.431 666.631C607.911 666.807 607.427 667.138 607.074 667.558C606.838 667.838 606.722 668.068 606.597 668.406C606.547 668.543 606.451 668.812 606.493 668.984C606.535 669.158 606.678 669.066 606.778 669C607.086 668.794 607.382 668.455 607.608 668.182C607.885 667.846 608.143 667.505 608.331 667.111C608.404 666.959 608.49 666.776 608.398 666.61C608.207 666.268 607.506 666.476 607.245 666.557C606.843 666.682 606.471 666.878 606.366 667.315C606.317 667.517 606.232 668.356 606.656 668.28C606.855 668.243 607.104 667.968 607.212 667.852C607.476 667.566 607.649 667.33 607.86 667.001C607.99 666.799 608.136 666.556 608.218 666.322C608.297 666.099 608.184 666.04 607.96 666.027C607.48 666 606.972 666.11 606.518 666.26C606.118 666.393 606.543 666.261 606.301 666.347C606.282 666.353 606.33 666.317 606.347 666.306C606.66 666.104 606.984 665.92 607.297 665.718C607.451 665.619 607.912 665.35 607.732 665.382C607.495 665.424 607.241 665.601 607.037 665.715C607.029 665.719 606.644 665.95 606.698 665.93C607.26 665.724 607.795 665.461 608.374 665.299" stroke="#0A0A0A" stroke-linecap="round"/>
<path d="M635 633.562V634.96C635 635.251 635.248 635.481 635.538 635.459L640.861 635.049C641.186 635.024 641.4 634.701 641.297 634.392L641.016 633.547C641.005 633.516 640.992 633.486 640.975 633.457L637.464 627.311C637.265 626.964 636.761 626.978 636.582 627.336L636.525 627.451C636.508 627.484 636.496 627.518 636.487 627.553L635.015 633.44C635.005 633.48 635 633.521 635 633.562Z" fill="#0A0A0A" stroke="#0A0A0A"/>
<path d="M607 666C612.158 662.087 617.328 658.191 622.509 654.311C623.308 653.712 625.674 651.934 626.931 651.034C626.952 651.019 626.976 651.009 627 651" stroke="#0A0A0A" stroke-linecap="round"/>
<path d="M611.981 662.85C612.33 662.577 612.023 662.655 611.719 662.662C611.45 662.668 611.821 662.478 611.878 662.438C612.654 661.892 613.434 661.353 614.209 660.806C615.138 660.15 616.055 659.475 616.984 658.819C617.024 658.791 617.147 658.713 617.11 658.744C616.846 658.965 616.526 659.148 616.247 659.346C615.387 659.956 614.489 660.526 613.661 661.179C613.611 661.218 613.269 661.543 613.328 661.515C614.225 661.086 615.057 660.356 615.849 659.768C616.855 659.022 617.837 658.244 618.823 657.472" stroke="#0A0A0A" stroke-linecap="round"/>
<path d="M617.327 658.331C620.936 654.188 624.581 650.077 628.21 645.952" stroke="#0A0A0A" stroke-linecap="round"/>
<path d="M517.201 755.456C519.476 753.627 521.691 751.717 523.934 749.848" stroke="#FF7903" stroke-linecap="round"/>
<path d="M524.13 749.587C524.121 749.592 524.035 749.643 524.035 749.643C523.604 749.984 522.572 750.853 522.375 751.019C520.481 752.611 518.606 754.223 516.731 755.835" stroke="#FF7903" stroke-linecap="round"/>
<path d="M524.548 749.613C524.39 749.853 524.344 749.968 524.185 750.316C522.914 753.092 521.742 755.913 520.522 758.711" stroke="#FF7903" stroke-linecap="round"/>
<path d="M522.885 751.582C522.797 751.681 522.694 751.746 522.59 751.827C522.299 752.052 522.046 752.311 521.825 752.604C521.764 752.684 521.699 752.774 521.655 752.867C521.642 752.894 521.625 752.96 521.655 752.958C521.715 752.953 521.828 752.854 521.85 752.835C521.99 752.719 522.113 752.597 522.241 752.466C522.422 752.279 522.594 752.086 522.747 751.876C522.776 751.836 523.052 751.438 522.797 751.739C522.544 752.038 522.302 752.349 522.081 752.672C522.074 752.682 521.98 752.823 521.964 752.861C521.948 752.899 521.994 752.869 521.998 752.866C522.11 752.79 522.206 752.679 522.292 752.577C522.478 752.356 522.641 752.116 522.796 751.873C522.943 751.642 523.093 751.415 523.253 751.193C523.274 751.163 523.308 751.128 523.322 751.093C523.35 751.027 523.193 751.157 523.134 751.198C522.938 751.334 522.751 751.48 522.586 751.654C522.418 751.833 522.259 752.023 522.097 752.208" stroke="#FF7903" stroke-linecap="round"/>
<path d="M605.475 801.045C601.459 807.431 597.571 813.9 593.628 820.331" stroke="#FF7903" stroke-linecap="round"/>
<path d="M605.971 800.769C605.73 801.273 605.55 801.797 605.344 802.321C602.512 809.496 599.7 816.678 596.879 823.857" stroke="#FF7903" stroke-linecap="round"/>
<path d="M605.916 800.659C600.578 806.746 595.401 812.979 590.157 819.146" stroke="#FF7903" stroke-linecap="round"/>
<path d="M603.491 804.819C602.906 805.408 602.39 806.056 601.855 806.691C600.49 808.313 602.121 806.209 602.307 805.961C602.485 805.723 603.015 805.005 602.847 805.251C602.355 805.97 601.853 806.683 601.358 807.4C600.009 809.354 598.647 811.31 597.439 813.357C597.322 813.557 596.958 814.148 597.093 813.96C597.375 813.569 597.648 813.171 597.923 812.775C599.105 811.078 600.317 809.403 601.515 807.718C602.047 806.972 602.565 806.215 603.113 805.48C603.206 805.356 603.441 804.986 603.432 805.141C603.405 805.585 603.093 806.128 602.918 806.514C602.436 807.573 601.877 808.595 601.32 809.616C600.553 811.021 599.839 812.465 599.033 813.847C597.748 816.049 601.32 809.286 602.616 807.091C602.741 806.88 602.862 806.663 602.996 806.457C603.072 806.339 602.936 806.731 602.887 806.863C602.234 808.618 601.379 810.299 600.62 812.01C600.134 813.105 599.618 814.194 599.163 815.301C599.116 815.415 599.112 815.475 599.187 815.304C599.499 814.603 599.773 813.885 600.051 813.17C600.714 811.463 601.43 809.765 602.004 808.024C602.034 807.934 602.118 807.671 602.145 807.553C602.154 807.511 602.187 807.425 602.145 807.424C601.938 807.42 601.356 808.171 601.281 808.251C600.124 809.477 599.03 810.762 597.897 812.01C597.703 812.224 597.649 812.283 597.482 812.477C597.453 812.511 597.382 812.622 597.392 812.578C597.439 812.367 597.762 812.025 597.869 811.872C598.676 810.722 599.486 809.574 600.308 808.435C600.338 808.393 600.608 808.053 600.351 808.291C599.848 808.755 599.38 809.26 598.918 809.763C598.287 810.45 597.726 811.228 597.055 811.875C596.548 812.365 598.048 810.875 598.535 810.366C598.884 810.003 599.232 809.639 599.556 809.253C599.613 809.186 599.781 808.996 599.584 809.211C598.579 810.305 597.531 811.358 596.536 812.463C595.745 813.343 595.004 814.297 594.038 814.995C593.868 815.118 593.695 815.263 593.481 815.299C593.23 815.343 593.642 814.826 593.663 814.794C595.091 812.706 596.87 810.863 598.581 809.013C599.76 807.739 600.997 806.519 602.166 805.236C602.79 804.55 603.455 803.906 604.015 803.166" stroke="#FF7903" stroke-linecap="round"/>
<path d="M605.137 803.097C604.733 804.512 604.134 806.002 603.656 807.349C602.014 811.972 600.369 816.594 598.727 821.217" stroke="#FF7903" stroke-linecap="round"/>
<path d="M602.615 805.508C602.391 805.731 602.164 805.943 601.931 806.161C599.504 808.431 597.055 810.677 594.646 812.965C593.514 814.039 592.453 815.186 591.37 816.308" stroke="#FF7903" stroke-linecap="round"/>
<path d="M603.24 805.752C603.323 805.618 603.527 805.207 603.508 805.364C603.497 805.459 603.445 805.545 603.409 805.635C603.34 805.804 603.256 805.966 603.193 806.138" stroke="#FF7903" stroke-linecap="round"/>
<path d="M603.801 804.49C603.744 804.615 603.729 804.642 603.677 804.79C603.651 804.864 603.626 804.938 603.606 805.014C603.593 805.063 603.562 805.115 603.577 805.164C603.585 805.188 603.623 805.139 603.639 805.119C603.69 805.054 603.731 804.98 603.775 804.909C603.828 804.821 604.041 804.451 604.097 804.353C604.154 804.253 604.207 804.151 604.267 804.053C604.271 804.047 604.282 804.029 604.282 804.036C604.281 804.053 604.272 804.068 604.266 804.083C604.162 804.335 604.045 804.582 603.933 804.831C603.892 804.923 603.77 805.201 603.818 805.112C603.942 804.879 604.052 804.637 604.168 804.4C604.202 804.332 604.23 804.261 604.27 804.197C604.295 804.156 604.23 804.287 604.21 804.331C604.151 804.462 604.093 804.592 604.034 804.723" stroke="#FF7903" stroke-linecap="round"/>
<path d="M554.986 752.152C558.634 759.714 561.947 767.446 565.401 775.097" stroke="#FF7903" stroke-linecap="round"/>
<path d="M555.45 752.191C553.372 758.328 551.086 764.398 548.892 770.494" stroke="#FF7903" stroke-linecap="round"/>
<path d="M555.596 752.044C559.701 760.722 563.047 769.799 566.705 778.667" stroke="#FF7903" stroke-linecap="round"/>
<path d="M555.561 752.121C555.469 752.6 555.471 753.13 555.441 753.607C555.385 754.505 555.165 757.183 555.356 756.304C555.428 755.973 555.469 755.622 555.49 755.284C555.492 755.254 555.508 754.958 555.52 754.984C555.765 755.511 555.81 756.333 555.903 756.876C556.115 758.109 556.296 759.346 556.42 760.592C556.441 760.793 556.465 760.997 556.48 761.199C556.497 761.417 556.422 760.765 556.398 760.547C556.234 759.115 556.088 757.669 555.766 756.262C555.754 756.21 555.687 755.969 555.815 756.142C556.387 756.917 556.775 757.878 557.179 758.744C557.805 760.082 558.381 761.44 559.021 762.772C559.603 763.984 557.877 760.336 557.298 759.121C556.964 758.422 556.637 757.718 556.278 757.031C556.194 756.872 555.899 756.418 556.002 756.565C556.989 757.976 557.758 759.577 558.367 761.181C558.371 761.19 559.021 762.781 558.832 762.846C558.523 762.951 557.795 761.66 557.711 761.518C557.273 760.783 557.01 760.016 556.856 759.178C556.743 758.556 556.718 757.882 556.521 757.278C556.445 757.047 556.293 757.166 556.186 757.321C555.758 757.936 555.559 758.735 555.398 759.453C555.179 760.434 555.047 761.437 554.915 762.433C554.892 762.609 554.836 762.786 554.858 762.962C554.883 763.158 555.153 762.694 555.261 762.53C555.806 761.7 556.175 760.794 556.413 759.831C556.584 759.144 556.739 758.365 556.631 757.653C556.578 757.308 556.388 757.287 556.11 757.471C555.122 758.123 554.453 759.382 553.902 760.385C553.527 761.067 553.15 761.802 552.917 762.549C552.903 762.595 552.9 762.718 552.938 762.69C553.045 762.612 553.305 762.252 553.337 762.207C554.593 760.389 555.108 758.28 555.842 756.23C555.853 756.198 555.974 755.935 555.815 756.052C555.377 756.373 555.048 756.95 554.767 757.395C553.793 758.938 553.095 760.757 552.684 762.535C552.618 762.817 552.626 762.815 552.719 762.521C552.962 761.752 553.195 760.981 553.414 760.205C553.702 759.189 553.96 758.158 554.364 757.18C554.575 756.67 554.853 756.192 555.104 755.702C555.106 755.697 555.248 755.44 555.248 755.466C555.263 755.907 555.017 756.489 554.908 756.895C554.628 757.938 554.337 758.977 554.069 760.023C553.953 760.478 553.904 760.68 553.803 761.107C553.799 761.125 553.676 761.499 553.7 761.575C553.717 761.626 553.775 761.497 553.803 761.451C553.909 761.28 554.073 760.981 554.159 760.819C554.551 760.086 554.908 759.336 555.286 758.595C555.299 758.568 555.693 757.609 555.903 757.836C555.992 757.932 556.06 758.263 556.073 758.352C556.159 758.965 556.103 759.601 556.036 760.212C555.95 760.994 555.787 761.759 555.654 762.533C555.64 762.617 555.531 763.204 555.713 762.724C555.981 762.017 556.173 761.278 556.352 760.544C556.424 760.244 556.488 759.963 556.542 759.661C556.569 759.515 556.609 759.29 556.475 759.552C556.201 760.088 555.978 760.657 555.78 761.225C555.663 761.562 555.619 761.721 555.522 762.048C555.499 762.125 555.456 762.352 555.441 762.274C555.351 761.802 555.535 761.131 555.596 760.675C555.714 759.794 555.896 758.916 555.981 758.032C556.066 757.149 555.545 756.284 555.656 755.393" stroke="#FF7903" stroke-linecap="round"/>
<path d="M555.49 751.063C554.782 753.783 554.252 756.556 553.645 759.299" stroke="#FF7903" stroke-linecap="round"/>
<path d="M555.689 751.157C556.073 752.634 556.487 754.103 556.888 755.575" stroke="#FF7903" stroke-linecap="round"/>
<path d="M556.002 751.905C556.5 753.19 557.181 754.629 557.704 755.824C559.616 760.195 561.509 764.574 563.398 768.955" stroke="#FF7903" stroke-linecap="round"/>
<path d="M554.58 757.12C552.248 761.355 549.947 765.607 547.633 769.851" stroke="#FF7903" stroke-linecap="round"/>
<path d="M554.896 756.589C550.836 763.018 546.622 769.351 542.476 775.724" stroke="#FF7903" stroke-linecap="round"/>
<path d="M555.652 751.158C556.074 751.828 556.235 752.233 556.665 753.151C560.633 761.631 564.437 770.188 568.32 778.707" stroke="#FF7903" stroke-linecap="round"/>
<path d="M586.757 585.734C587.035 586.87 587.165 587.922 587.376 589.154C590.108 605.135 592.774 621.127 595.472 637.114" stroke="#FE1D01" stroke-width="3" stroke-linecap="round"/>
<path d="M586.939 583.132C586.462 585.782 584.991 589.735 584.343 591.826C581.298 601.652 578.272 611.484 575.259 621.319" stroke="#FE1D01" stroke-width="3" stroke-linecap="round"/>
<path d="M739.273 653.859L738.64 655.233L738.096 656.415C738.038 656.541 737.955 656.653 737.851 656.745L737 657.5L736.615 657.885C736.539 657.961 736.451 658.025 736.355 658.073L735.5 658.5L734.054 659.271C733.4 659.62 732.607 659.161 732.584 658.42L732.526 656.573L732.598 654.047L733.281 650.043C733.408 649.295 734.29 648.956 734.885 649.426L738.984 652.656C739.347 652.942 739.466 653.439 739.273 653.859Z" fill="#0A0A0A" stroke="#0A0A0A"/>
<path d="M639.761 599.402L633.659 602.198C633.341 602.344 632.975 602.126 632.952 601.777L632.5 595L632 589V584.895C632 584.504 632.429 584.264 632.762 584.469L646.643 593.011C646.85 593.138 646.935 593.395 646.847 593.62L646.55 594.373C646.517 594.456 646.463 594.529 646.393 594.584L643.4 596.923L639.835 599.361C639.812 599.377 639.787 599.391 639.761 599.402Z" fill="#0A0A0A" stroke="#0A0A0A"/>
<path d="M595.725 737.341L597.475 734.54C597.492 734.513 597.506 734.485 597.517 734.456L600.93 725.68C600.975 725.564 601.061 725.469 601.172 725.414L601.764 725.118C601.912 725.044 602.086 725.048 602.231 725.128L610.743 729.857C610.902 729.945 611 730.113 611 730.294V732.5V732.691C611 732.88 610.893 733.054 610.724 733.138L610 733.5L609.034 733.983C609.011 733.994 608.988 734.004 608.964 734.012L596.302 738.082C595.858 738.224 595.478 737.736 595.725 737.341Z" fill="#0A0A0A" stroke="#0A0A0A"/>
<defs>
<linearGradient id="paint0_linear_1_62" x1="540" y1="72" x2="540" y2="1007" gradientUnits="userSpaceOnUse">
<stop stop-color="#730002"/>
<stop offset="1" stop-color="#FF0004"/>
</linearGradient>
<linearGradient id="paint1_linear_1_62" x1="540" y1="190" x2="540" y2="889" gradientUnits="userSpaceOnUse">
<stop offset="0.233367" stop-color="#730002"/>
<stop offset="1" stop-color="#FF0004"/>
</linearGradient>
<linearGradient id="paint2_linear_1_62" x1="540" y1="190" x2="540" y2="889" gradientUnits="userSpaceOnUse">
<stop offset="0.23" stop-color="#730002"/>
<stop offset="1" stop-color="#FF0004"/>
</linearGradient>
</defs>
</svg>
