<svg width="1920" height="595" viewBox="0 0 1920 595" fill="none" xmlns="http://www.w3.org/2000/svg">
<path d="M1605 127.5C1619.3 131.09 1626.84 144.236 1637.48 153.135C1664.25 178.743 1692.5 211.425 1688.55 250.949C1685.17 236.449 1670.29 239.242 1663.25 249.338C1645.59 277.049 1618.08 296.826 1600.54 324.612C1587.87 344.927 1584.97 369.277 1574.17 390.436C1557.28 423.577 1527.77 458.284 1487.88 460.385C1469.53 453.096 1460.6 427.336 1467.38 409.154C1455.01 439.242 1439.89 472.553 1408.41 486.961C1381.5 497.087 1351.44 479.259 1339.62 454.939C1328.81 435.667 1327.47 412.715 1316.25 393.689C1287.69 413.805 1286.58 455.216 1293.21 486.348C1295.63 499.606 1278.52 498.515 1270.38 495.032C1228.75 479.873 1197.27 445.918 1173.54 409.816C1149.58 372.408 1144.39 327.469 1130 286.333C1101.85 299.942 1081.06 326.961 1074.62 357.418C1067.93 383.149 1071.64 410.721 1062.36 435.898C1059.05 444.72 1051.16 455.246 1040.33 452.209C1001.97 439.028 989.401 394.948 958.862 373.329C954.583 392.37 955.278 412.27 949.316 430.989C938.364 465.879 904.859 496.166 866.877 495.676C814.482 490.966 775.093 449.952 751.984 405.918C745.002 436.343 743.317 467.721 749.991 498.345C730.002 484.306 719.684 461.353 706.817 441.452C697.038 453.513 691.864 468.395 682.812 480.931C656.97 515.422 608.962 540.77 566.174 522.434C539.59 512.032 523.726 486.516 513.361 461.398C513.608 489.186 516.158 519.688 501.112 544.451C487.797 564.412 458.509 566.669 440.189 552.291C403.673 525.855 381.739 481.559 381.415 436.802C379.113 417.301 381.246 397.507 377.831 378.145C365.612 393.151 356.808 410.626 343.986 425.218C323.472 452.683 285.504 467.075 252.294 455.72C252.063 478.582 257.7 500.906 259.415 523.599C240.538 513.364 224.506 498.789 208.517 484.687C168.711 441.572 156.199 379.893 161.558 323C120.98 347.411 105.316 401.313 122.617 444.504C126.108 454.999 132.272 464.603 133.739 475.759C105.965 469.053 87.4297 445.962 72.9868 423.086C69.3883 429.667 69.0483 437.187 69.8977 444.49C53.1533 436.541 48.0411 409.368 28.0826 410.626C21.3016 394.931 16.9455 378.482 14.6441 361.574C26.0437 374.738 40.3158 385.003 51.4845 398.351C64.5529 385.509 87.0122 398.075 97.7016 383.422C110.275 349.053 121.072 312.076 147.054 284.871C177.282 247.849 220.116 224.291 246.5 184C239.116 252.017 197.859 313.011 209.629 383.361C212.812 398.075 213.629 418.866 230.776 424.372C256.294 432.212 287.79 438.749 309.646 418.88C337.759 402.862 344.71 366.268 371.989 350.433C400.828 349.097 422.608 380.429 422.624 407.264C423.458 427.87 413.248 451.33 427.645 469.466C435.615 483.751 459.572 497.85 469.396 477.583C486.712 436.433 499.874 392.796 527.167 356.508C557.5 384 506.5 429.02 540.914 453.739C553.055 445.039 556.375 430.156 560.546 416.792C564.161 445.437 578.882 485.253 615.104 480.327C673.214 471.751 702.223 414.628 740.377 377.128C764.736 355.248 776.594 322.16 770 290C819.275 328.65 798.982 407.109 850.174 444.285C864.432 456.391 880.295 443.12 891.293 433.513C927.793 403.671 938.343 355.661 951.241 312.915C968.727 337.602 986.985 363.363 1012.5 380.181C1019.73 378.922 1024.16 384.215 1027.24 389.985C1039.8 371.189 1029.62 345.043 1037.8 323.977C1045.26 300.211 1065.58 284.007 1078.88 263.678C1094.8 240.955 1104 211.5 1096.5 184C1094 172 1087.14 161.707 1090.45 149.77C1105.08 153.544 1114.76 165.696 1124.17 176.559C1152.25 210.514 1174.62 250.683 1180.93 294.657C1183.39 322.244 1185.49 350.046 1192.63 376.927C1194.87 386.241 1209 382.328 1212.12 391.411C1220.03 409.409 1233.04 427.898 1252.93 433.436C1264.3 428.189 1264.75 412.661 1269.63 402.351C1280.49 365.021 1308.72 337.645 1333.5 309C1333.7 327.673 1326.24 345.46 1332.38 363.809C1342.31 391.595 1357.72 420.273 1384.21 435.554C1398.8 444.485 1417.55 434.618 1422.69 419.489C1432.02 395.108 1440.83 370.498 1450.5 346.225C1458.56 356.505 1463.67 368.656 1468.27 380.762C1474.22 395.752 1463.95 412.906 1473.8 426.96C1475.49 427.713 1477.2 428.525 1478.93 429.323C1479.57 425.824 1480.23 422.343 1480.91 418.875C1484.57 426.501 1484.88 435.661 1489.95 442.549C1499.94 445.633 1507.93 435.614 1515.39 430.475C1541.2 410.774 1556.8 378.124 1552.35 345.642C1547.52 312.869 1558.7 278.116 1583.46 255.591C1599.06 237.732 1622.5 221 1620.24 194.02C1619 170 1606.62 150.684 1605 127.5Z" fill="url(#paint0_linear_362_364)"/>
<path d="M1316.22 260.021C1306.32 242.684 1299.23 217.429 1320.18 204.893C1313.39 231.191 1335.31 249.695 1347.89 269.673C1337.74 260.068 1329.88 248.315 1319.03 239.4C1312.87 244.724 1314.49 253.07 1316.22 260.021Z" fill="url(#paint1_linear_362_364)"/>
<path d="M1870.42 317.497C1877.8 303.949 1892.54 291.583 1906.98 289.22C1901.82 304.088 1891.97 320.153 1895.95 337.597C1894.58 328.805 1893.2 320.028 1891.01 311.406C1883.41 309.719 1875.1 310.578 1870.42 317.497Z" fill="url(#paint2_linear_362_364)"/>
<path d="M1257.43 363.834C1263.9 349.304 1273.22 336.078 1284.22 324.571C1286.42 336.877 1285.98 349.411 1285.68 361.855C1286.36 361.501 1287.72 360.78 1288.39 360.428C1287.18 361.702 1285.96 362.959 1284.74 364.233C1283.86 355.166 1286.32 345.422 1282.35 336.892C1270.1 340.405 1266.44 355.657 1257.43 363.834Z" fill="url(#paint3_linear_362_364)"/>
<path d="M-67.6527 471.528C-47.109 488.697 -21.3123 504.992 6.80012 497.857C11.2496 522.007 13.8136 550.761 -2.51479 571.151C-21.2822 589.748 -49.983 577.994 -67.6543 563.924V471.528H-67.6527Z" fill="url(#paint4_linear_362_364)"/>
<path d="M1600.53 324.611C1618.08 296.823 1645.59 277.047 1663.25 249.337C1666.71 276.034 1663.28 302.992 1666.15 329.72C1669.61 375.489 1688.29 420.384 1722.18 452.176C1753.12 491.162 1805.77 508.377 1854.46 502.118C1887.63 497.07 1913.04 473.335 1933.95 449.046C1938.11 465.708 1935.68 484.673 1945.24 499.571C1953.71 508.393 1961.23 494.063 1966.75 488.708C1979.95 509.575 2004.96 528.279 2030.85 519.211C2064.99 504.803 2089.21 475.006 2111.27 446.499C2121.49 462.977 2126.79 483.047 2141.56 496.35C2160.63 511.678 2182.21 493.849 2195.5 479.825C2213.91 491.777 2239.89 487.374 2246.21 464.435C2259 486.161 2270.1 512.536 2294.2 523.968C2299.35 489.799 2283.88 455.629 2288.81 420.999C2314.39 453.65 2345.53 489.968 2389.79 494.54C2424.7 489.891 2434.58 450.336 2441.53 421.659C2460.52 447.037 2473.62 477.049 2498.16 498.069C2525.87 525.365 2567.8 550.651 2607.63 535.107C2645.23 521.943 2652.63 478.185 2650.19 443.539C2650.79 443.494 2652.03 443.417 2652.65 443.385L2653.73 443.846C2677.19 459.741 2708.67 473.842 2736.49 460.508C2769.47 443.476 2793.98 412.346 2806.66 377.961C2820.78 340.769 2811.08 300.891 2804.08 263.377C2833.46 289.752 2853.35 326.438 2867.11 363.047C2877.26 395.79 2880.48 430.067 2887.62 463.485C2911.15 455.153 2925.39 433.397 2940.96 415.398C2958.71 452.146 2972.67 495.659 3009.2 518.428C3028.91 531.423 3055.79 523.399 3071.02 507.243C3084.88 491.946 3087.06 470.588 3095.84 452.606V594.486C2041.34 594.348 986.853 594.286 -67.6499 594.502V526.485C-49.9786 540.555 -21.2794 552.308 -2.51041 533.712C13.8164 513.32 11.2524 484.568 6.8045 460.418C13.3688 460.264 19.6103 462.489 25.5719 464.96C33.8982 448.036 31.4418 428.458 28.0901 410.63C48.047 409.371 53.1608 436.544 69.9051 444.493C69.0557 437.19 69.3958 429.671 72.9943 423.089C87.4372 445.965 105.974 469.058 133.746 475.762C132.278 464.607 126.116 455.002 122.625 444.507C105.324 401.316 120.988 347.415 161.566 323.004C156.205 379.897 168.717 441.577 208.525 484.691C224.511 498.792 240.546 513.367 259.422 523.602C257.708 500.91 252.07 478.585 252.301 455.723C285.512 467.078 323.48 452.685 343.993 425.221C356.813 410.63 365.619 393.154 377.838 378.148C381.251 397.511 379.121 417.304 381.422 436.805C381.747 481.561 403.681 525.858 440.197 552.294C458.517 566.67 487.804 564.416 501.119 544.454C516.165 519.69 513.615 489.187 513.369 461.402C523.734 486.518 539.597 512.035 566.181 522.438C608.969 540.773 656.977 515.426 682.82 480.934C691.872 468.399 697.046 453.516 706.824 441.456C719.692 461.356 730.009 484.309 749.998 498.349C743.325 467.724 745.009 436.346 751.991 405.921C775.099 449.956 814.489 490.969 866.884 495.679C904.868 496.171 938.371 465.883 949.323 430.992C955.285 412.273 954.591 392.373 958.869 373.332C989.408 394.951 1001.98 439.033 1040.34 452.212C1051.16 455.25 1059.06 444.724 1062.36 435.902C1071.65 410.724 1067.94 383.152 1074.63 357.421C1081.07 326.964 1101.86 299.945 1130 286.336C1144.4 327.472 1149.59 372.412 1173.55 409.819C1197.27 445.923 1228.75 479.877 1270.38 495.035C1278.52 498.519 1295.64 499.607 1293.22 486.351C1286.59 455.221 1287.7 413.808 1316.26 393.693C1327.48 412.718 1328.82 435.672 1339.63 454.943C1351.45 479.262 1381.51 497.09 1408.42 486.964C1439.9 472.557 1455.02 439.247 1467.39 409.158C1460.61 427.339 1469.54 453.101 1487.89 460.388C1527.77 458.286 1557.29 423.579 1574.18 390.439C1584.96 369.276 1587.87 344.926 1600.53 324.611Z" fill="#C60202"/>
<path d="M1565.04 116.9C1551.09 72.4348 1570.95 13.0877 1619.36 0C1611.84 20.7141 1600.21 42.1022 1606.17 64.8713C1613.65 95.8795 1640.83 115.274 1662.57 136.371C1683.9 157.621 1703.21 182.601 1708.94 212.797C1718.81 245.202 1706.96 278.235 1701.97 310.334C1733.96 312.713 1758.04 282.517 1774.85 258.872C1788.94 237.437 1783.58 210.847 1775.34 188.37C1801.34 201.474 1815.61 232.604 1813.47 260.913C1812.62 300.423 1786.03 336.432 1794.44 376.525C1802.08 397.376 1821.69 421.911 1846.85 414.976C1865.43 409.052 1863.62 386.653 1860.24 371.477C1853.49 341.65 1853.04 308.569 1870.42 282.056C1875.1 275.137 1883.41 274.278 1891.01 275.965C1893.21 284.587 1894.58 293.364 1895.96 302.156C1897.21 310.089 1900.68 317.439 1903.86 324.773C1907.71 341.759 1917.8 356.549 1921.38 373.642C1924.41 384.949 1921.95 399.373 1933.57 406.523C1931.53 410.236 1929.51 413.95 1927.45 417.647C1929.97 417.678 1932.52 417.739 1935.1 417.816C1928.26 428.48 1927.03 450.928 1921.38 462.59C1912.38 475.723 1916.02 507.251 1898.5 498C1873.2 486.307 1865.77 470.5 1850 473C1821.93 457.288 1854.5 476 1807 462.59C1676.5 512.5 1757.02 489.899 1764 475C1751.13 498.706 1728.5 471 1718.5 456C1712.83 447.5 1719 452.5 1709 441.5C1675.11 409.709 1669.62 377.494 1666.16 331.725C1663.28 304.997 1666.71 278.039 1663.25 251.342C1663.25 239.5 1684.62 235.001 1688 249.5C1691.95 209.976 1664.26 180.747 1637.49 155.139C1626.84 146.24 1619.8 132 1605.5 128.41C1607.12 151.594 1621.17 172.245 1620.25 196.028C1624.06 222.895 1599.07 239.74 1583.47 257.6C1558.71 280.124 1547.52 314.876 1552.36 347.65C1556.81 380.132 1541.21 412.782 1515.39 432.483C1507.93 437.622 1499.95 447.642 1489.95 444.557C1484.89 437.668 1484.58 428.508 1480.92 420.883C1480.24 424.351 1479.57 427.834 1478.94 431.331C1477.21 430.533 1475.49 429.721 1473.81 428.968C1463.96 414.914 1474.23 397.761 1468.28 382.77C1463.68 370.665 1458.57 358.513 1450.5 348.233C1440.83 372.506 1432.03 397.116 1422.7 421.498C1417.56 436.626 1398.8 446.491 1384.22 437.563C1357.73 422.28 1342.31 393.603 1332.38 365.818C1326.25 347.466 1333.2 328.471 1333 309.8C1308.22 338.445 1280.5 367.03 1269.64 404.359C1264.76 414.671 1264.31 430.197 1252.94 435.445C1233.04 429.906 1220.04 411.417 1212.13 393.419C1209.01 384.337 1194.88 388.249 1192.64 378.935C1185.5 352.054 1183.4 324.251 1180.94 296.665C1174.62 252.691 1152.26 212.522 1124.17 178.568C1114.77 167.705 1105.08 155.553 1090.45 151.778C1087.15 163.716 1095.8 174.425 1096.97 186.086C1105.1 213.597 1094.81 242.963 1078.88 265.687C1065.58 286.016 1045.27 302.219 1037.81 325.986C1029.62 347.052 1039.8 373.197 1027.24 391.993C1024.17 386.224 1019.74 380.931 1012.51 382.189C986.991 365.373 968.733 339.611 951.248 314.923C938.351 357.67 927.8 405.679 891.3 435.522C880.302 445.126 864.439 458.398 850.181 446.293C798.991 409.117 819.55 329.745 770.274 291.097C776.87 323.257 764.744 357.256 740.384 379.136C702.231 416.635 673.221 473.759 615.111 482.336C578.889 487.261 564.168 447.445 560.553 418.8C556.382 432.164 553.062 447.046 540.921 455.747C506.505 431.03 556.136 386.671 527.174 358.516C499.879 394.804 486.719 438.439 469.404 479.591C459.579 499.859 435.622 485.759 427.652 471.474C413.255 453.338 422.631 430 422.631 409.272C422.616 382.437 400.837 351.107 371.997 352.441C344.718 368.275 337.766 404.869 309.654 420.888C287.797 440.757 256.301 434.221 230.783 426.381C213.637 420.872 212.819 400.083 209.636 385.369C196.5 312 237.5 250 246.477 184.372C220.093 224.664 177.291 249.857 147.061 286.88C121.079 314.083 110.282 351.061 97.7089 385.43C87.0195 400.083 64.5602 387.517 51.4918 400.359C40.3231 387.011 26.3997 376.665 15 363.5C18.3486 380.418 22.219 396.803 29 412.5C33.9101 428.365 33.8981 450.042 25.5717 466.965C19.6086 464.495 13.3686 462.271 6.80432 462.423C-21.3081 469.558 -47.1048 453.263 -67.6485 436.094V358.026C-49.6071 383.834 -38.9177 419.414 -7.15934 431.951C0.069241 415.211 -12.4266 398.457 -12.6274 381.41C-18.7282 344.233 -7.60698 303.773 24.5832 281.448C53.2681 275.219 34.2065 312.166 43.629 326.635C49.9781 347.394 65.4096 363.857 82.3233 376.883C79.7751 335.824 93.0428 294.475 120.292 263.358C148.436 228.606 188.797 204.855 213.589 167.324C231.692 139.077 222.657 103.297 203.564 78.0878C213.094 59.7525 233 81.2441 241.61 90.3476C264.117 114.144 280.057 144.939 281.663 177.927C285.462 243.825 241.763 301.348 242.413 366.741C244.19 384.049 249.179 410.209 270.311 412.418C311.199 401.601 345.537 362.337 343.837 319.085C343.606 287.984 342.755 255.257 356.611 226.519C372.985 188.1 411.725 161.065 415.618 117.305C437.074 149.511 413.223 187.654 406.351 220.918C394.179 266.059 422.106 307.47 440.673 346.456C453.262 371.987 444.936 400.358 446.497 427.316C461.928 416.713 473.42 400.956 481.824 384.492C494.027 354.511 483.693 321.646 486.365 290.515C488.449 269.418 505.472 252.08 525.801 247.002C522.479 258.755 512.995 268.959 515.097 281.893C516.255 308.422 538.746 326.757 545.234 351.567C551.197 368.093 548.431 386.151 554.239 402.691C572.08 385.721 584.947 364.762 597.49 343.85C610.296 361.74 611.223 384.954 604.333 405.299C602.648 411.544 597.753 424.571 608.906 423.956C635.906 420.366 661.1 397.214 662.938 369.381C664.53 345.322 654.196 323.013 647.754 300.428C686.973 316.307 697.909 361.126 705.973 398.135C720.37 355.726 745.578 311.322 729.544 265.537C723.706 237.582 697.307 206.097 716.585 178.618C736.341 232.227 801.48 247.97 825.839 298.586C848.145 333.277 835.339 376.255 848.083 413.232C899.784 397.153 922.691 336.454 923.047 286.925C924.097 266.703 917.981 243.503 932.068 226.365C947.931 275.171 979.536 316.169 1007.29 358.763C1001.48 332.143 1003.86 303.297 1019.06 280.022C1032.92 257.191 1056.12 238.35 1058.75 210.134C1058.84 187.211 1044.86 167.387 1040.49 145.339C1028.76 96.2409 1069.22 48.569 1113.94 34.1002C1100.41 61.3346 1079.78 92.4041 1096.39 123.368C1115.17 156.127 1155.81 167.035 1178.66 196.526C1215.9 236.787 1222.03 294.6 1215.55 346.69C1214.73 362.755 1209.74 380.615 1219.3 395.099C1237.13 376.212 1244.2 350.312 1257.44 328.402C1266.44 320.224 1270.1 304.973 1282.35 301.46C1286.32 309.991 1283.87 319.734 1284.75 328.801C1285.97 327.529 1287.19 326.27 1288.39 324.996C1299.78 309.3 1314.71 295.997 1323.4 278.506C1330.18 260.737 1324.51 240.884 1316.23 224.59C1314.5 217.639 1312.88 209.293 1319.04 203.968C1329.88 212.883 1337.74 224.635 1347.89 234.241C1364.7 257.088 1377.98 285.871 1368.84 314.502C1359.54 343.517 1367.08 381.936 1396.15 396.634C1411.92 403.953 1422.41 386.323 1423.6 373.037C1434.75 333.037 1408.65 293.559 1417.71 253.697C1428.65 264.315 1435.12 278.353 1443.96 290.583C1460.01 316.069 1485.08 334.91 1498.47 362.221C1507.21 378.822 1506.62 398.017 1508.09 416.184C1518.98 411.059 1524.99 399.767 1525.39 388.074C1527.77 357.787 1517.73 327.653 1523.26 297.35C1530.21 253.193 1574.33 225.804 1579.09 180.956C1581.6 158.418 1569.78 138.242 1565.04 116.9Z" fill="#E10101"/>
<defs>
<linearGradient id="paint0_linear_362_364" x1="14.6441" y1="343.967" x2="1688.92" y2="343.967" gradientUnits="userSpaceOnUse">
<stop stop-color="#D00000"/>
<stop offset="1" stop-color="#D00000"/>
</linearGradient>
<linearGradient id="paint1_linear_362_364" x1="1306.6" y1="237.283" x2="1347.89" y2="237.283" gradientUnits="userSpaceOnUse">
<stop stop-color="#D00000"/>
<stop offset="1" stop-color="#D00000"/>
</linearGradient>
<linearGradient id="paint2_linear_362_364" x1="1870.42" y1="313.408" x2="1906.98" y2="313.408" gradientUnits="userSpaceOnUse">
<stop stop-color="#D00000"/>
<stop offset="1" stop-color="#D00000"/>
</linearGradient>
<linearGradient id="paint3_linear_362_364" x1="1257.43" y1="344.402" x2="1288.39" y2="344.402" gradientUnits="userSpaceOnUse">
<stop stop-color="#D00000"/>
<stop offset="1" stop-color="#D00000"/>
</linearGradient>
<linearGradient id="paint4_linear_362_364" x1="-67.6543" y1="526.138" x2="10.1502" y2="526.138" gradientUnits="userSpaceOnUse">
<stop stop-color="#D00000"/>
<stop offset="1" stop-color="#D00000"/>
</linearGradient>
</defs>
</svg>
