<svg width="1487" height="161" viewBox="0 0 1487 161" fill="none" xmlns="http://www.w3.org/2000/svg">
<path d="M24.512 89V137H16.064V91.56L20.672 95.656L0.576 99.176V92.456L18.176 89H24.512Z" fill="#D80100"/>
<path d="M477.688 105.512C477.944 101.971 479.075 98.8987 481.08 96.296C483.128 93.6933 485.837 91.688 489.208 90.28C492.579 88.8293 496.419 88.104 500.728 88.104C504.824 88.104 508.408 88.744 511.48 90.024C514.595 91.304 517.005 93.096 518.712 95.4C520.461 97.704 521.336 100.371 521.336 103.4C521.336 105.747 520.76 107.923 519.608 109.928C518.499 111.933 516.643 113.981 514.04 116.072C511.48 118.12 508.003 120.445 503.608 123.048L487.672 132.456L486.584 129.96H522.808V137H478.136V130.856L498.552 118.44C502.136 116.264 504.952 114.387 507 112.808C509.091 111.187 510.584 109.672 511.48 108.264C512.376 106.856 512.824 105.363 512.824 103.784C512.824 102.12 512.376 100.627 511.48 99.304C510.584 97.9813 509.219 96.936 507.384 96.168C505.592 95.4 503.288 95.016 500.472 95.016C497.272 95.016 494.648 95.4853 492.6 96.424C490.552 97.3627 489.016 98.6427 487.992 100.264C487.011 101.843 486.413 103.592 486.2 105.512H477.688Z" fill="#D80100"/>
<path d="M960.648 103.784C960.947 100.84 962.013 98.1947 963.848 95.848C965.725 93.4587 968.328 91.5813 971.656 90.216C975.027 88.808 979.037 88.104 983.688 88.104C987.827 88.104 991.411 88.6587 994.44 89.768C997.512 90.8347 999.88 92.3493 1001.54 94.312C1003.21 96.232 1004.04 98.5147 1004.04 101.16C1004.04 103.379 1003.38 105.384 1002.06 107.176C1000.78 108.925 998.813 110.312 996.168 111.336C993.523 112.36 990.216 112.872 986.248 112.872V111.656C990.173 111.485 993.544 111.848 996.36 112.744C999.176 113.597 1001.33 114.92 1002.82 116.712C1004.36 118.461 1005.13 120.616 1005.13 123.176C1005.13 126.035 1004.25 128.573 1002.5 130.792C1000.75 133.011 998.216 134.76 994.888 136.04C991.603 137.277 987.571 137.896 982.792 137.896C978.141 137.896 974.088 137.235 970.632 135.912C967.176 134.547 964.467 132.648 962.504 130.216C960.584 127.784 959.517 124.947 959.304 121.704H967.816C968.2 124.691 969.651 126.995 972.168 128.616C974.685 130.195 978.227 130.984 982.792 130.984C987.357 130.984 990.792 130.237 993.096 128.744C995.4 127.251 996.552 125.203 996.552 122.6C996.552 121.064 996.147 119.784 995.336 118.76C994.568 117.693 993.267 116.883 991.432 116.328C989.64 115.773 987.208 115.496 984.136 115.496H975.432V109.224H984.136C988.104 109.224 990.984 108.584 992.776 107.304C994.568 105.981 995.464 104.296 995.464 102.248C995.464 99.9867 994.461 98.216 992.456 96.936C990.493 95.656 987.421 95.016 983.24 95.016C979.144 95.016 975.88 95.784 973.448 97.32C971.059 98.8133 969.629 100.968 969.16 103.784H960.648Z" fill="#D80100"/>
<path d="M1475.83 89V137H1467.38V92.52H1470.84L1443.32 123.112L1443.13 120.104H1484.6V126.888H1436.47V120.808L1465.08 89H1475.83Z" fill="#D80100"/>
<path d="M20.5475 5.10205L1466.77 5.77832" stroke="white" stroke-width="9" stroke-linecap="round"/>
<rect x="16.4472" y="5.60205" width="7.09259" height="64.7285" rx="3.5463" fill="white" stroke="white"/>
<rect x="499.54" y="5.60205" width="7.09259" height="64.7285" rx="3.5463" fill="white" stroke="white"/>
<rect x="982.632" y="3.2876" width="7.09259" height="64.7285" rx="3.5463" fill="white" stroke="white"/>
<rect x="1465.22" y="1.20215" width="8.09259" height="68.8999" rx="4.0463" fill="white"/>
</svg>
