<svg width="50" height="35" viewBox="0 0 50 35" fill="none" xmlns="http://www.w3.org/2000/svg">
<path d="M10.0176 4.98948C10.0176 3.60948 11.1316 2.49552 12.5116 2.49552H44.9346C46.3145 2.49552 47.4285 3.60948 47.4285 4.98948V8.69074C45.5818 9.61022 44.3107 11.513 44.3107 13.7191C44.3107 15.9237 45.5818 17.8342 47.4285 18.7459V22.4487C47.4285 23.8271 46.3145 24.9426 44.9346 24.9426H12.5116C11.1316 24.9426 10.0176 23.8271 10.0176 22.4487V18.7459C11.8644 17.8248 13.1339 15.9237 13.1339 13.7191C13.1339 11.513 11.8644 9.60244 10.0176 8.69074V4.98948ZM47.7957 8.58963C47.7801 8.60985 47.763 8.60985 47.7474 8.59118C47.7303 8.57096 47.7334 8.55383 47.7568 8.54294C47.7723 8.52272 47.7879 8.52272 47.805 8.54139C47.8221 8.56161 47.819 8.57718 47.7957 8.58963ZM7.52215 4.98948V9.35351C7.52215 10.0396 8.09933 10.5764 8.73877 10.8424C9.8605 11.3185 10.64 12.4247 10.64 13.7191C10.64 15.012 9.85272 16.1197 8.73877 16.5942C8.09933 16.8587 7.52215 17.397 7.52215 18.0831V22.4487C7.52215 25.1994 9.75937 27.4366 12.5116 27.4366H44.9346C47.6868 27.4366 49.924 25.1994 49.924 22.4487V18.0831C49.924 17.397 49.3468 16.8587 48.7074 16.5942C47.5919 16.1197 46.8062 15.012 46.8062 13.7191C46.8062 12.4247 47.5919 11.3185 48.7074 10.8424C49.339 10.5764 49.924 10.0396 49.924 9.35351V4.98948C49.924 2.23726 47.6868 3.8147e-06 44.9346 3.8147e-06H12.5116C9.75937 3.8147e-06 7.52215 2.23726 7.52215 4.98948ZM2.53424 6.23568C2.53424 5.54957 1.97415 4.98948 1.28804 4.98948C0.601931 4.98948 0.0402832 5.54957 0.0402832 6.23568V26.1888C0.0402832 31.0134 3.94537 34.9185 8.76991 34.9185H41.1944C41.8805 34.9185 42.4406 34.3568 42.4406 33.6723C42.4406 32.9861 41.8805 32.4245 41.1944 32.4245H8.76991C5.32381 32.4245 2.53424 29.6334 2.53424 26.1888V6.23568Z" fill="#C91313"/>
</svg>
