<svg width="46" height="45" viewBox="0 0 46 45" fill="none" xmlns="http://www.w3.org/2000/svg">
<path d="M18.0591 1.11643C18.3018 1.94567 17.8351 2.81224 17.0059 3.05495C15.6228 3.46413 14.2972 4.02887 13.051 4.71186C13.303 5.3933 13.4399 6.12454 13.4399 6.89466C13.4399 10.333 10.6442 13.1303 7.2043 13.1303C6.43573 13.1303 5.7045 12.9934 5.02306 12.7398C4.34006 13.986 3.78462 15.3116 3.36611 16.6947C3.1234 17.5239 2.25527 17.9907 1.42758 17.7479C0.599895 17.5037 0.131597 16.6371 0.375858 15.8079C0.881494 14.0949 1.58318 12.4675 2.45131 10.9382C1.53495 9.84602 0.979529 8.43335 0.979529 6.89466C0.979529 3.45478 3.77532 0.65903 7.2152 0.65903C8.75389 0.65903 10.1666 1.21442 11.2587 2.14946C12.7788 1.28288 14.4139 0.581238 16.1299 0.074046C16.9576 -0.168659 17.8242 0.298082 18.0684 1.12577L18.0591 1.11643ZM27.5386 1.11643C27.7813 0.28874 28.6495 -0.179561 29.4772 0.0646999C31.1917 0.570336 32.819 1.27357 34.3484 2.14015C35.439 1.21445 36.8517 0.65903 38.3919 0.65903C41.8303 0.65903 44.6276 3.45478 44.6276 6.89466C44.6276 8.43335 44.0722 9.84602 43.1356 10.9382C44.0037 12.4567 44.7054 14.0949 45.211 15.8079C45.4553 16.6371 44.987 17.5037 44.1593 17.7479C43.3316 17.9907 42.4635 17.5239 42.2208 16.6947C41.8116 15.3116 41.2468 13.986 40.5638 12.7398C39.8824 12.9934 39.1511 13.1303 38.3826 13.1303C34.9427 13.1303 32.1469 10.333 32.1469 6.89466C32.1469 6.12454 32.2823 5.3933 32.5359 4.71186C31.2897 4.02887 29.9641 3.47502 28.581 3.05495C27.7533 2.81224 27.285 1.94567 27.5277 1.11643H27.5386ZM1.42758 27.2275C2.25527 26.9832 3.1234 27.4515 3.36611 28.2792C3.77528 29.6639 4.34006 30.9878 5.02306 32.2356C5.7045 31.982 6.43573 31.8451 7.2043 31.8451C10.6442 31.8451 13.4399 34.6424 13.4399 38.0807C13.4399 38.8509 13.3046 39.5821 13.051 40.2635C14.2972 40.945 15.6228 41.5004 17.0059 41.9189C17.8351 42.1632 18.3018 43.0298 18.0591 43.8574C17.8149 44.6867 16.9483 45.1534 16.1206 44.9107C14.4046 44.4035 12.7787 43.7019 11.2478 42.8353C10.1665 43.7517 8.75389 44.3071 7.2152 44.3071C3.77532 44.3071 0.979529 41.5097 0.979529 38.0714C0.979529 36.5312 1.53496 35.1185 2.47 34.0279C1.60342 32.5079 0.901738 30.8712 0.394546 29.1567C0.150285 28.3274 0.618583 27.4608 1.44627 27.2181L1.42758 27.2275ZM44.1593 27.2275C44.987 27.4717 45.4553 28.3383 45.211 29.166C44.7054 30.8805 44.0037 32.5079 43.1356 34.0372C44.0613 35.1278 44.6276 36.5421 44.6276 38.0807C44.6276 41.5206 41.8303 44.3164 38.3919 44.3164C36.8517 44.3164 35.439 43.761 34.3484 42.8259C32.8284 43.6925 31.1917 44.3942 29.4772 44.9014C28.6495 45.1441 27.7813 44.6773 27.5386 43.8481C27.2944 43.0204 27.7627 42.1538 28.5904 41.9096C29.9735 41.5004 31.299 40.9356 32.5452 40.2542C32.2916 39.5712 32.1563 38.84 32.1563 38.0714C32.1563 34.6315 34.952 31.8358 38.3919 31.8358C39.1605 31.8358 39.8917 31.9727 40.5747 32.2247C41.2562 30.9785 41.8116 29.653 42.2301 28.2699C42.4743 27.4422 43.3409 26.9739 44.1686 27.2181L44.1593 27.2275ZM7.2152 10.0125C7.62749 10.0125 8.02576 9.93315 8.40849 9.77446C8.78966 9.61577 9.12727 9.3902 9.41976 9.09926C9.7107 8.80677 9.93626 8.46916 10.095 8.08799C10.2536 7.70526 10.333 7.30695 10.333 6.89466C10.333 6.48082 10.2536 6.08255 10.095 5.70138C9.93626 5.31865 9.7107 4.98104 9.41976 4.6901C9.12727 4.39761 8.78966 4.172 8.40849 4.01331C8.02576 3.85618 7.62749 3.77683 7.2152 3.77683C6.80136 3.77683 6.40305 3.85618 6.02187 4.01331C5.63915 4.172 5.30309 4.39761 5.0106 4.6901C4.71811 4.98104 4.49254 5.31865 4.33385 5.70138C4.17671 6.08255 4.09737 6.48082 4.09737 6.89466C4.09737 7.30695 4.17671 7.70526 4.33385 8.08799C4.49254 8.46916 4.71811 8.80677 5.0106 9.09926C5.30309 9.3902 5.63915 9.61577 6.02187 9.77446C6.40305 9.93315 6.80136 10.0125 7.2152 10.0125ZM10.333 38.0714C10.333 37.6576 10.2536 37.2593 10.095 36.8781C9.93626 36.4954 9.7107 36.1593 9.41976 35.8668C9.12727 35.5744 8.78966 35.3488 8.40849 35.1901C8.02576 35.0329 7.62749 34.9536 7.2152 34.9536C6.80136 34.9536 6.40305 35.0329 6.02187 35.1901C5.63915 35.3488 5.30309 35.5744 5.0106 35.8668C4.71811 36.1593 4.49254 36.4954 4.33385 36.8781C4.17671 37.2593 4.09737 37.6576 4.09737 38.0714C4.09737 38.4837 4.17671 38.882 4.33385 39.2647C4.49254 39.6459 4.71811 39.9835 5.0106 40.276C5.30309 40.5685 5.63915 40.7925 6.02187 40.9512C6.40305 41.1099 6.80136 41.1892 7.2152 41.1892C7.62749 41.1892 8.02576 41.1099 8.40849 40.9512C8.78966 40.7925 9.12727 40.5685 9.41976 40.276C9.7107 39.9835 9.93626 39.6459 10.095 39.2647C10.2536 38.882 10.333 38.4837 10.333 38.0714ZM38.3919 10.0125C38.8042 10.0125 39.2025 9.93315 39.5852 9.77446C39.9664 9.61577 40.304 9.3902 40.5965 9.09926C40.8874 8.80677 41.113 8.46916 41.2717 8.08799C41.4304 7.70526 41.5098 7.30695 41.5098 6.89466C41.5098 6.48082 41.4304 6.08255 41.2717 5.70138C41.113 5.31865 40.8874 4.98104 40.5965 4.6901C40.304 4.39761 39.9664 4.172 39.5852 4.01331C39.2025 3.85618 38.8042 3.77683 38.3919 3.77683C37.9781 3.77683 37.5798 3.85618 37.1986 4.01331C36.8159 4.172 36.4799 4.39761 36.1874 4.6901C35.8949 4.98104 35.6693 5.31865 35.5106 5.70138C35.3534 6.08255 35.2741 6.48082 35.2741 6.89466C35.2741 7.30695 35.3534 7.70526 35.5106 8.08799C35.6693 8.46916 35.8949 8.80677 36.1874 9.09926C36.4799 9.3902 36.8159 9.61577 37.1986 9.77446C37.5798 9.93315 37.9781 10.0125 38.3919 10.0125ZM41.5098 38.0714C41.5098 37.6576 41.4304 37.2593 41.2717 36.8781C41.113 36.4954 40.8874 36.1593 40.5965 35.8668C40.304 35.5744 39.9664 35.3488 39.5852 35.1901C39.2025 35.0329 38.8042 34.9536 38.3919 34.9536C37.9781 34.9536 37.5798 35.0329 37.1986 35.1901C36.8159 35.3488 36.4799 35.5744 36.1874 35.8668C35.8949 36.1593 35.6693 36.4954 35.5106 36.8781C35.3534 37.2593 35.2741 37.6576 35.2741 38.0714C35.2741 38.4837 35.3534 38.882 35.5106 39.2647C35.6693 39.6459 35.8949 39.9835 36.1874 40.276C36.4799 40.5685 36.8159 40.7925 37.1986 40.9512C37.5798 41.1099 37.9781 41.1892 38.3919 41.1892C38.8042 41.1892 39.2025 41.1099 39.5852 40.9512C39.9664 40.7925 40.304 40.5685 40.5965 40.276C40.8874 39.9835 41.113 39.6459 41.2717 39.2647C41.4304 38.882 41.5098 38.4837 41.5098 38.0714ZM11.9697 13.986C11.9697 13.1303 12.6698 12.4271 13.5286 12.4271H17.9704C19.3925 12.4271 20.5438 13.5769 20.5438 15.0004V19.4422C20.5438 20.301 19.8405 21.0012 18.9848 21.0012C18.126 21.0012 17.4259 20.301 17.4259 19.4422V18.1478C16.4504 19.3551 15.867 20.8845 15.867 22.5601C15.867 25.289 17.415 27.646 19.6959 28.816C20.4644 29.2049 20.7662 30.1493 20.3773 30.9101C19.9868 31.6693 19.0424 31.982 18.2816 31.5915C15.0082 29.9159 12.7585 26.5071 12.7585 22.5601C12.7585 19.8716 13.8102 17.4166 15.5263 15.604C15.545 15.5854 15.5652 15.5652 15.5838 15.5449H13.538C12.6807 15.5449 11.9791 14.8448 11.9791 13.986H11.9697ZM32.234 32.693H27.7922C26.3687 32.693 25.219 31.5433 25.219 30.1213V25.6779C25.219 24.8206 25.9206 24.119 26.7779 24.119C27.6351 24.119 28.3368 24.8206 28.3368 25.6779V26.8183C29.3107 25.6094 29.8957 24.0801 29.8957 22.4045C29.8957 19.6772 28.3477 17.3185 26.0669 16.1501C25.2967 15.7596 24.9949 14.8153 25.3854 14.056C25.7743 13.2952 26.7203 12.9825 27.4795 13.373C30.7529 15.0486 33.0042 18.459 33.0042 22.4045C33.0042 25.0929 31.9509 27.5495 30.2364 29.3605C30.1586 29.4383 30.0808 29.516 29.9937 29.5752H32.2247C33.082 29.5752 33.7836 30.2768 33.7836 31.1341C33.7836 31.9913 33.082 32.693 32.2247 32.693H32.234Z" fill="#C91313"/>
</svg>
